:SAMPLES-PER-SECOND 30
:FULLY-SPECIFIED
:DEGREES
15
root  -84.3088 36.9487 0.135037 -118.485 80.4757 -117.308
RightUpLeg  -27.2219 2.17006 12.0999
RightLeg  29.744 2.27194 -4.6212
RightFoot  -2.45845 -0.277754 2.97921
RightToes  1.16414e-010 -1.59028e-015 9.93923e-017
Spine  5.81575 -5.62308 3.75851
Spine1  9.92014 -7.22471 8.05763
HEad  -11.5817 7.79245 0.840505
LeftShoulder1  9.93923e-017 0 1.22299e-017
LeftArm  21.0397 0.595533 -78.9914
LeftForeArm  -42.8236 -28.6823 18.8343
LeftHand  0.712046 5.47759 3.8151
RightShoulder  1.98785e-016 -4.96962e-017 1.55301e-017
RightArm  12.8663 -51.9743 72.0243
RightForeArm  -26.1413 15.4733 -1.16103
RightHand  1.39883 -13.6847 -2.04254
LeftUpLeg  -1.22794 -4.9538 12.4467
LeftLeg  55.7621 -7.19131 7.45892
LeftFoot  16.3884 0.651883 -2.19619
LeftToes  4.22918e-010 -9.72932e-012 3.81536e-011
16
root  -82.1894 37.3169 0.343843 -117.565 80.8115 -116.922
RightUpLeg  -23.9194 2.55563 12.5124
RightLeg  29.7552 2.10079 -4.72764
RightFoot  -6.34936 -0.16499 2.98392
RightToes  1.16414e-010 -1.59028e-015 9.93923e-017
Spine  5.6346 -4.46934 4.57474
Spine1  9.98278 -5.74463 6.70239
HEad  -11.9075 5.54293 2.04337
LeftShoulder1  9.93923e-017 0 1.22299e-017
LeftArm  24.0344 5.78883 -80.8592
LeftForeArm  -43.7896 -25.1469 15.0301
LeftHand  0.674893 5.24275 3.58304
RightShoulder  1.98785e-016 -4.96962e-017 1.55301e-017
RightArm  19.9734 -47.5236 76.5703
RightForeArm  -33.7338 17.3371 -3.82829
RightHand  1.47048 -13.9089 -2.73007
LeftUpLeg  -9.35057 -5.26554 11.3689
LeftLeg  61.0443 -8.56068 6.95054
LeftFoot  10.9509 0.258425 -1.06228
LeftToes  4.22918e-010 -9.72932e-012 3.81536e-011
17
root  -80.0234 37.7433 0.51859 -117.745 81.8198 -117.411
RightUpLeg  -19.7672 3.30258 12.1096
RightLeg  28.7239 2.06738 -4.53263
RightFoot  -9.65216 -0.129668 4.43185
RightToes  1.16414e-010 -1.59028e-015 9.93923e-017
Spine  5.82268 -3.24565 4.87869
Spine1  9.5185 -4.12102 5.18219
HEad  -11.3795 3.29854 2.86735
LeftShoulder1  9.93923e-017 0 1.22299e-017
LeftArm  17.1712 11.9776 -81.5529
LeftForeArm  -35.4219 -21.3178 6.79294
LeftHand  0.692366 5.30066 3.1256
RightShoulder  1.98785e-016 -4.96962e-017 1.55301e-017
RightArm  29.0488 -42.9095 80.0909
RightForeArm  -42.0508 19.0068 -7.57167
RightHand  1.49976 -13.9294 -3.13378
LeftUpLeg  -16.6159 -6.04672 9.21947
LeftLeg  62.07 -9.73585 4.88395
LeftFoot  6.60316 0.269592 -1.44449
LeftToes  4.22918e-010 -9.72932e-012 3.81536e-011
18
root  -77.8026 38.0838 0.661829 -115.611 83.5425 -115.183
RightUpLeg  -14.9726 4.22297 11.1975
RightLeg  27.3459 2.11823 -4.21871
RightFoot  -13.0144 -0.00942962 4.40573
RightToes  1.16414e-010 -1.59028e-015 9.93923e-017
Spine  6.20931 -1.8587 5.34739
Spine1  9.11409 -2.06227 2.65147
HEad  -10.7417 1.49632 3.39629
LeftShoulder1  9.93923e-017 0 1.22299e-017
LeftArm  8.23043 18.7707 -80.9623
LeftForeArm  -24.7756 -16.3506 -0.965339
LeftHand  0.782941 5.77291 2.20905
RightShoulder  1.98785e-016 -4.96962e-017 1.55301e-017
RightArm  35.7063 -38.5183 82.7258
RightForeArm  -48.5383 19.9522 -11.7867
RightHand  1.4347 -13.4427 -3.03641
LeftUpLeg  -22.3982 -6.4696 6.67937
LeftLeg  59.4342 -9.9134 3.76842
LeftFoot  3.94369 0.316163 -1.98566
LeftToes  4.22918e-010 -9.72932e-012 3.81536e-011
19
root  -75.5394 38.2785 0.780198 -106.22 85.62 -105.538
RightUpLeg  -9.92101 5.02206 10.0027
RightLeg  25.7425 2.20848 -3.85124
RightFoot  -16.0148 0.0881171 3.5282
RightToes  1.16414e-010 -1.59028e-015 9.93923e-017
Spine  6.19332 -0.351099 6.16676
Spine1  9.61133 0.357153 -1.00906
HEad  -10.4373 -0.406033 4.19984
LeftShoulder1  9.93923e-017 0 1.22299e-017
LeftArm  6.13895 25.6989 -79.5351
LeftForeArm  -19.7269 -11.9962 -4.971
LeftHand  0.884935 6.35957 1.14955
RightShoulder  1.98785e-016 -4.96962e-017 1.55301e-017
RightArm  39.5467 -34.2434 84.522
RightForeArm  -53.4413 20.3495 -16.5291
RightHand  1.35144 -12.9189 -2.70554
LeftUpLeg  -26.9946 -6.06476 4.29847
LeftLeg  53.9774 -8.58435 4.63057
LeftFoot  1.71255 0.303261 -2.25212
LeftToes  4.22918e-010 -9.72932e-012 3.81536e-011
20
root  -73.2979 38.2232 0.86644 -81.6981 87.1561 -80.6778
RightUpLeg  -5.36399 5.60482 8.85974
RightLeg  25.0823 2.77229 -3.4306
RightFoot  -18.6923 0.17658 3.55602
RightToes  1.16414e-010 -1.59028e-015 9.93923e-017
Spine  6.03343 1.10067 7.24924
Spine1  11.0418 2.80063 -4.64337
HEad  -11.0189 -2.40814 5.43601
LeftShoulder1  9.93923e-017 0 1.22299e-017
LeftArm  7.48043 32.7236 -77.3715
LeftForeArm  -17.1564 -9.59445 -6.57238
LeftHand  0.941805 6.71025 0.281201
RightShoulder  1.98785e-016 -4.96962e-017 1.55301e-017
RightArm  39.2549 -29.5528 85.0453
RightForeArm  -53.4843 21.4245 -20.2643
RightHand  1.33171 -12.7974 -2.61189
LeftUpLeg  -30.9227 -5.26614 2.4644
LeftLeg  46.9545 -6.60242 5.52
LeftFoot  0.386175 0.350401 -2.88862
LeftToes  4.22918e-010 -9.72932e-012 3.81536e-011
21
root  -71.086 37.8764 0.920387 -47.4659 87.376 -45.8847
RightUpLeg  -1.2741 6.09233 8.08527
RightLeg  25.8377 3.77303 -3.02883
RightFoot  -21.7998 0.293143 3.85651
RightToes  1.16414e-010 -1.59028e-015 9.93923e-017
Spine  6.04362 2.49488 8.42301
Spine1  13.2249 5.08397 -7.20315
HEad  -12.9534 -3.795 6.33172
LeftShoulder1  9.93923e-017 0 1.22299e-017
LeftArm  8.49248 40.2253 -74.3697
LeftForeArm  -14.8566 -9.20783 -6.55396
LeftHand  0.944839 6.72148 -0.114613
RightShoulder  1.98785e-016 -4.96962e-017 1.55301e-017
RightArm  35.6333 -24.0784 84.1231
RightForeArm  -48.3537 23.8428 -22.4575
RightHand  1.34858 -12.8191 -2.86107
LeftUpLeg  -34.1315 -4.48087 1.33649
LeftLeg  39.0953 -5.59061 4.69564
LeftFoot  0.365764 0.419073 -3.45719
LeftToes  4.22918e-010 -9.72932e-012 3.81536e-011
